<?xml version="1.0" encoding="UTF-8" standalone="no"?>
<svg width="84px" height="25px" viewBox="0 0 84 25" version="1.1" xmlns="http://www.w3.org/2000/svg" xmlns:xlink="http://www.w3.org/1999/xlink" xmlns:sketch="http://www.bohemiancoding.com/sketch/ns">
    <!-- Generator: Sketch 3.2.2 (9983) - http://www.bohemiancoding.com/sketch -->
    <title>icon-social-login</title>
    <desc>Created with Sketch.</desc>
    <defs></defs>
    <g id="Page-1" stroke="none" stroke-width="1" fill="none" fill-rule="evenodd" sketch:type="MSPage">
        <g id="icon-social-login" sketch:type="MSArtboardGroup" fill="#FFFFFF">
            <g id="icon-fb" sketch:type="MSLayerGroup" transform="translate(9.000000, 0.000000)">
                <path d="M22.2222222,0 L2.77777778,0 C1.25,0 0,1.25 0,2.77777778 L0,22.2222222 C0,23.7513889 1.25,25 2.77777778,25 L12.5,25 L12.5,15.2777778 L9.72222222,15.2777778 L9.72222222,11.8402778 L12.5,11.8402778 L12.5,8.99305556 C12.5,5.9875 14.1833333,3.87638889 17.7305556,3.87638889 L20.2347222,3.87916667 L20.2347222,7.49722222 L18.5722222,7.49722222 C17.1916667,7.49722222 16.6666667,8.53333333 16.6666667,9.49444444 L16.6666667,11.8416667 L20.2333333,11.8416667 L19.4444444,15.2777778 L16.6666667,15.2777778 L16.6666667,25 L22.2222222,25 C23.75,25 25,23.7513889 25,22.2222222 L25,2.77777778 C25,1.25 23.75,0 22.2222222,0 L22.2222222,0 Z" id="Shape" sketch:type="MSShapeGroup"></path>
            </g>
            <g id="soundcloud" sketch:type="MSLayerGroup" transform="translate(42.000000, 2.000000)">
                <path d="M1.4112,17.005 L2.1,14.0473333 L1.4112,10.9925556 C1.3923,10.9017778 1.218,10.8321111 1.0101,10.8321111 C0.7959,10.8321111 0.6237,10.9017778 0.609,10.9925556 L0,14.0473333 L0.6069,17.0028889 C0.6237,17.0978889 0.7959,17.1633333 1.008,17.1633333 C1.218,17.1654444 1.3923,17.1 1.4112,17.005 L1.4112,17.005 Z M5.7183,18.6453333 L6.3,14.0768889 L5.7183,7.00888889 C5.6994,6.83155556 5.4789,6.688 5.2164,6.688 C4.9497,6.688 4.7271,6.83155556 4.7166,7.00888889 L4.2,14.0768889 L4.7166,18.6453333 C4.7292,18.8268889 4.9497,18.9662222 5.2164,18.9662222 C5.4789,18.9662222 5.6994,18.8268889 5.7183,18.6453333 L5.7183,18.6453333 Z M10.0128,18.5714444 L10.5,14.0811111 L10.0128,4.67188889 C10.0002,4.44811111 9.7419,4.275 9.4206,4.275 C9.1014,4.275 8.8431,4.44811111 8.8305,4.67188889 L8.4,14.0811111 L8.8305,18.5756667 C8.8431,18.7931111 9.1014,18.9683333 9.4206,18.9683333 C9.7419,18.9662222 10.0002,18.7931111 10.0128,18.5714444 L10.0128,18.5714444 Z M14.301,18.506 L14.7,14.0811111 L14.301,4.60222222 C14.2905,4.34255556 13.9944,4.13566667 13.629,4.13566667 C13.2594,4.13566667 12.9654,4.34255556 12.9549,4.60222222 L12.6,14.0811111 L12.957,18.506 C12.9654,18.7656667 13.2615,18.9725556 13.629,18.9725556 C13.9944,18.9704444 14.2905,18.7698889 14.301,18.506 L14.301,18.506 Z M18.585,18.4468889 L18.9,14.0853333 L18.585,3.21522222 C18.5766,2.91544444 18.2406,2.67688889 17.8332,2.67688889 C17.4258,2.67688889 17.0898,2.91966667 17.0835,3.21733333 L16.8,14.0811111 L17.0835,18.4468889 C17.0898,18.7445556 17.4258,18.9873333 17.8332,18.9873333 C18.2406,18.9873333 18.5766,18.7487778 18.585,18.4468889 L18.585,18.4468889 Z M21.5817,18.9915556 C21.5985,18.9915556 36.4917,19 36.5862,19 C39.5766,19 42,16.6418889 42,13.7348889 C42,10.8278889 39.5766,8.474 36.5862,8.474 C35.8449,8.474 35.1393,8.62177778 34.4946,8.88144444 C34.0641,4.13988889 29.9733,0.420111111 24.9837,0.420111111 C23.7636,0.420111111 22.5729,0.654444444 21.5229,1.04711111 C21.1113,1.20333333 21.0042,1.35955556 21,1.66988889 L21,18.3687778 C21.0042,18.6917778 21.2604,18.9577778 21.5817,18.9915556 L21.5817,18.9915556 Z" id="Shape" sketch:type="MSShapeGroup"></path>
            </g>
        </g>
    </g>
</svg>